# xmcd CD database file
#
# Track frame offsets:
#	150
#	23540
#	46053
#	75070
#	91887
#	119252
#	140938
#	162502
#	192964
#
# Disc length: 2845 seconds
#
# Revision: 0
# Processed by: cddbd v1.4PL0 Copyright (c) Steve Scherf et al.
# Submitted via: CDex 1.50beta8
#
DISCID=660b1b09
DTITLE=Blue - Slow Down
DYEAR=2002
DGENRE=Jazz
TTITLE0=since when
TTITLE1=blue marie
TTITLE2=embraceable you
TTITLE3=miss news he look cool
TTITLE4=hanging hand
TTITLE5=what can I do?
TTITLE6=wicked game
TTITLE7=just a game
TTITLE8=lucky star
EXTD=YEAR: 2002
EXTT0=
EXTT1=
EXTT2=
EXTT3=
EXTT4=
EXTT5=
EXTT6=
EXTT7=
EXTT8=
PLAYORDER=
